# xmcd
#
# Track frame offsets: 
#        150
#        18922
#        43208
#        59206
#        77612
#        96839
#        115157
#        132379
#        147346
#        160897
#        185821
#        208721
#        223826
#        242545
#        257734
#
# Disc length: 3636 seconds
#
# Revision: 1
# Processed by: cddbd v1.5.2PL0 Copyright (c) Steve Scherf et al.
# Submitted via: ExactAudioCopyFreeDBPlugin 1.0
#
DISCID=e40e320f
DTITLE=TAXI - 3.50
DYEAR=1900
DGENRE=
TTITLE0=Ten zwykly dzien
TTITLE1=Ona
TTITLE2=Melon
TTITLE3=Niewidzialna twarz
TTITLE4=To ty
TTITLE5=SOS
TTITLE6=Za moim oknem
TTITLE7=Jest mi dobrze
TTITLE8=Jak miod
TTITLE9=Gdy myslisz
TTITLE10=Nic nie zmienisz
TTITLE11=Zloto
TTITLE12=Jest mi dobrze - rmx
TTITLE13=Ten zwykly dzien - rmx
TTITLE14=Zloto - rmx
EXTD=
EXTT0=
EXTT1=
EXTT2=
EXTT3=
EXTT4=
EXTT5=
EXTT6=
EXTT7=
EXTT8=
EXTT9=
EXTT10=
EXTT11=
EXTT12=
EXTT13=
EXTT14=
PLAYORDER=
